Coordinates
version=1
nRows=26
nColumns=24
inDegrees=yes

Units are S.I. units (second, meters, Newtons, ...)
Angles are in degrees.

endheader
time	pelvis_tilt	pelvis_list	pelvis_rotation	pelvis_tx	pelvis_ty	pelvis_tz	hip_flexion_r	hip_adduction_r	hip_rotation_r	knee_angle_r	ankle_angle_r	subtalar_angle_r	mtp_angle_r	hip_flexion_l	hip_adduction_l	hip_rotation_l	knee_angle_l	ankle_angle_l	subtalar_angle_l	mtp_angle_l	lumbar_extension	lumbar_bending	lumbar_rotation
      5.42000000	     62.51364480	     -8.35189773	     -5.25636855	      0.42033690	      1.04837079	     -0.34929271	     15.67289261	     -2.22139497	     10.22562309	    -65.12511089	      6.20549640	     38.75138462	      0.00000000	      1.41442129	    -18.68989760	      0.74270708	    -61.54396071	     22.90378082	     30.70637112	      0.00000000	      0.00000000	      0.00000000	      0.00000000
      5.43000000	     62.54694716	     -8.38363803	     -5.26280902	      0.42038667	      1.04846111	     -0.34921149	     15.74084298	     -2.20977909	     10.21809343	    -65.45480685	      5.86988139	     38.57158188	      0.00000000	      1.31780951	    -18.73268675	      0.70684890	    -61.46998874	     22.95306193	     30.75886807	      0.00000000	      0.00000000	      0.00000000	      0.00000000
      5.44000000	     62.58369593	     -8.40443191	     -5.27543298	      0.42038376	      1.04856313	     -0.34908075	     15.70948040	     -2.20590739	     10.22936192	    -65.62067665	      5.82466530	     38.47127930	      0.00000000	      1.24709047	    -18.76811944	      0.67279318	    -61.42555456	     22.99374371	     30.80554857	      0.00000000	      0.00000000	      0.00000000	      0.00000000
      5.45000000	     62.61055094	     -8.41581327	     -5.28894337	      0.42040361	      1.04856882	     -0.34898032	     15.59413830	     -2.21435736	     10.26096870	    -65.61945653	      6.05056936	     38.45673717	      0.00000000	      1.20665873	    -18.79414111	      0.64754719	    -61.41304529	     23.02091487	     30.83979393	      0.00000000	      0.00000000	      0.00000000	      0.00000000
      5.46000000	     62.62037639	     -8.42239670	     -5.29767597	      0.42047311	      1.04838177	     -0.34892527	     15.43283287	     -2.23270191	     10.30612882	    -65.49730485	      6.45732782	     38.51635000	      0.00000000	      1.19081777	    -18.80819728	      0.63488764	    -61.42208724	     23.03385271	     30.85902886	      0.00000000	      0.00000000	      0.00000000	      0.00000000
      5.47000000	     62.61818409	     -8.42741068	     -5.29716584	      0.42049798	      1.04824839	     -0.34894708	     15.27643280	     -2.25382958	     10.35428558	    -65.32780703	      6.91126194	     38.62341577	      0.00000000	      1.19061292	    -18.80930526	      0.63446364	    -61.43952757	     23.03555841	     30.86471912	      0.00000000	      0.00000000	      0.00000000	      0.00000000
      5.48000000	     62.61568322	     -8.42985603	     -5.28749319	      0.42038924	      1.04852877	     -0.34906398	     15.16911610	     -2.27222076	     10.39552807	    -65.18346659	      7.27677850	     38.74257507	      0.00000000	      1.19958649	    -18.80121343	      0.64250731	    -61.45709450	     23.03148288	     30.86130892	      0.00000000	      0.00000000	      0.00000000	      0.00000000
      5.49000000	     62.61710242	     -8.42510758	     -5.27607846	      0.42026134	      1.04897752	     -0.34917038	     15.12778107	     -2.28887440	     10.42137436	    -65.11677360	      7.45659710	     38.83849206	      0.00000000	      1.21402888	    -18.79227700	      0.65332301	    -61.47274578	     23.02782298	     30.85465826	      0.00000000	      0.00000000	      0.00000000	      0.00000000
      5.50000000	     62.61997315	     -8.41083896	     -5.27196699	      0.42031914	      1.04891670	     -0.34911660	     15.14837744	     -2.30908608	     10.42315550	    -65.15691226	      7.41546976	     38.88438234	      0.00000000	      1.22640405	    -18.79013078	      0.66039422	    -61.48754905	     23.02972828	     30.85051725	      0.00000000	      0.00000000	      0.00000000	      0.00000000
      5.51000000	     62.63066458	     -8.39277795	     -5.27573903	      0.42055064	      1.04828577	     -0.34892508	     15.23126568	     -2.33509514	     10.39165860	    -65.31071452	      7.18265775	     38.86774779	      0.00000000	      1.22052494	    -18.79543373	      0.65741081	    -61.50241561	     23.03993824	     30.85324881	      0.00000000	      0.00000000	      0.00000000	      0.00000000
      5.52000000	     62.66333782	     -8.38129343	     -5.27974511	      0.42074605	      1.04779713	     -0.34877914	     15.38105576	     -2.36230615	     10.32069136	    -65.55281532	      6.83880367	     38.79167612	      0.00000000	      1.17955370	    -18.80163673	      0.64070316	    -61.51715259	     23.05836868	     30.86477199	      0.00000000	      0.00000000	      0.00000000	      0.00000000
      5.53000000	     62.71838275	     -8.38082591	     -5.27916267	      0.42080418	      1.04797794	     -0.34879342	     15.57652624	     -2.38280749	     10.21451970	    -65.81107807	      6.49172255	     38.67182338	      0.00000000	      1.10457713	    -18.80187716	      0.61278543	    -61.53110592	     23.08267157	     30.88385268	      0.00000000	      0.00000000	      0.00000000	      0.00000000
      5.54000000	     62.77193892	     -8.38480049	     -5.27784909	      0.42081779	      1.04863124	     -0.34891161	     15.75702271	     -2.39185543	     10.09420792	    -65.97394376	      6.24195408	     38.53062708	      0.00000000	      1.02581621	    -18.79606488	      0.58375415	    -61.54356850	     23.10919048	     30.90613652	      0.00000000	      0.00000000	      0.00000000	      0.00000000
      5.55000000	     62.79032657	     -8.38239830	     -5.28144107	      0.42089198	      1.04914181	     -0.34899171	     15.85106619	     -2.39226924	      9.99357859	    -65.93632217	      6.14522119	     38.39086905	      0.00000000	      0.99009988	    -18.79075572	      0.56764318	    -61.55383509	     23.13365001	     30.92521383	      0.00000000	      0.00000000	      0.00000000	      0.00000000
      5.56000000	     62.75706690	     -8.36909274	     -5.28737468	      0.42103925	      1.04906246	     -0.34893027	     15.82844898	     -2.39306446	      9.94007489	    -65.66562745	      6.18798239	     38.27052350	      0.00000000	      1.02864130	    -18.79182820	      0.57492205	    -61.56260226	     23.15143564	     30.93451098	      0.00000000	      0.00000000	      0.00000000	      0.00000000
      5.57000000	     62.68776640	     -8.34884184	     -5.28466270	      0.42115509	      1.04842288	     -0.34876845	     15.73078685	     -2.40181427	      9.93186882	    -65.24114037	      6.29094894	     38.18009478	      0.00000000	      1.12987231	    -18.79711434	      0.60603731	    -61.57510318	     23.15792631	     30.92933400	      0.00000000	      0.00000000	      0.00000000	      0.00000000
      5.58000000	     62.62257847	     -8.32755835	     -5.26419301	      0.42110918	      1.04764096	     -0.34867655	     15.65238197	     -2.41723886	      9.93314531	    -64.82450423	      6.34348266	     38.12250458	      0.00000000	      1.24287208	    -18.79636580	      0.65077130	    -61.60241863	     23.14945921	     30.90831013	      0.00000000	      0.00000000	      0.00000000	      0.00000000
      5.59000000	     62.60559751	     -8.30779651	     -5.22916985	      0.42097942	      1.04731293	     -0.34876407	     15.68331260	     -2.42951072	      9.89795408	    -64.56572857	      6.25524041	     38.09505685	      0.00000000	      1.31344294	    -18.77942197	      0.69419511	    -61.65638793	     23.12494058	     30.87382005	      0.00000000	      0.00000000	      0.00000000	      0.00000000
      5.60000000	     62.65209884	     -8.28997405	     -5.19642365	      0.42096014	      1.04769444	     -0.34891931	     15.84307653	     -2.42775676	      9.80810636	    -64.50432463	      6.00007247	     38.09311436	      0.00000000	      1.32478143	    -18.74603941	      0.72517202	    -61.73885194	     23.08726619	     30.83149972	      0.00000000	      0.00000000	      0.00000000	      0.00000000
      5.61000000	     62.72882289	     -8.27680578	     -5.18445717	      0.42099294	      1.04841075	     -0.34892332	     16.05864402	     -2.40652009	      9.69453520	    -64.53362504	      5.63067130	     38.11411563	      0.00000000	      1.30658351	    -18.70953183	      0.74166441	    -61.83301817	     23.04337420	     30.78911622	      0.00000000	      0.00000000	      0.00000000	      0.00000000
      5.62000000	     62.77716247	     -8.27402468	     -5.19650604	      0.42086710	      1.04890936	     -0.34873189	     16.21690226	     -2.36532304	      9.62128686	    -64.45262088	      5.25837970	     38.15932792	      0.00000000	      1.30374223	    -18.69131273	      0.74968740	    -61.90598302	     23.00238571	     30.75502605	      0.00000000	      0.00000000	      0.00000000	      0.00000000
      5.63000000	     62.75723809	     -8.28607968	     -5.21717073	      0.42066599	      1.04893075	     -0.34854859	     16.23924039	     -2.30440092	      9.64268763	    -64.07494679	      5.00876420	     38.23198399	      0.00000000	      1.33685141	    -18.70853948	      0.75712928	    -61.92388273	     22.97251389	     30.73633241	      0.00000000	      0.00000000	      0.00000000	      0.00000000
      5.64000000	     62.67082398	     -8.31332481	     -5.22925780	      0.42060924	      1.04851633	     -0.34853868	     16.10842942	     -2.22322883	      9.76707164	    -63.33199884	      4.97236145	     38.33321120	      0.00000000	      1.39459373	    -18.76122914	      0.76684741	    -61.87072808	     22.95830993	     30.73702060	      0.00000000	      0.00000000	      0.00000000	      0.00000000
      5.65000000	     62.55736021	     -8.35238540	     -5.22986257	      0.42062097	      1.04797846	     -0.34862604	     15.85725467	     -2.12441700	      9.95163780	    -62.31008408	      5.17094943	     38.45806775	      0.00000000	      1.45046151	    -18.83191737	      0.77472427	    -61.75858974	     22.95961985	     30.75666137	      0.00000000	      0.00000000	      0.00000000	      0.00000000
      5.66000000	     62.47236743	     -8.39730776	     -5.22617033	      0.42049983	      1.04779965	     -0.34868035	     15.55537930	     -2.01886045	     10.12730644	    -61.20323041	      5.55160270	     38.59365398	      0.00000000	      1.47307203	    -18.90037448	      0.77392248	    -61.62288685	     22.97249433	     30.79043962	      0.00000000	      0.00000000	      0.00000000	      0.00000000
      5.67000000	     62.45279560	     -8.44138145	     -5.22440075	      0.42027293	      1.04806740	     -0.34865802	     15.28244027	     -1.92372851	     10.23379583	    -60.21467050	      6.00745165	     38.72086831	      0.00000000	      1.43592502	    -18.95528977	      0.76004420	    -61.50575081	     22.99117013	     30.83074560	      0.00000000	      0.00000000	      0.00000000	      0.00000000
